<?xml version="1.0" encoding="utf-8"?>
<!-- Generator: Adobe Illustrator 23.0.1, SVG Export Plug-In . SVG Version: 6.00 Build 0)  -->
<svg version="1.1" id="Layer_1" xmlns="http://www.w3.org/2000/svg" xmlns:xlink="http://www.w3.org/1999/xlink" x="0px" y="0px"
	 viewBox="0 0 216 72" style="enable-background:new 0 0 216 72;" xml:space="preserve">
<style type="text/css">
	.st0{fill:#FFFFFF;}
</style>
<g>
	<path class="st0" d="M68.3,13.58c-0.77,2.27-1.49,4.41-2.21,6.54c-0.4,1.18-0.8,2.36-1.21,3.53c-0.31,0.9,0.04,1.33,0.95,1.47
		c1.66,0.24,2.36-0.17,2.91-1.79c0.97-2.86,1.95-5.72,2.86-8.6c0.27-0.84,0.61-1.22,1.57-1.19c2.2,0.08,4.41,0.03,6.82,0.03
		c-0.81,2.42-1.55,4.64-2.29,6.86c-0.39,1.18-0.86,2.34-1.17,3.54c-0.41,1.57-1.43,2.41-2.92,2.77c-3.77,0.9-7.56,0.99-11.37,0.17
		c-0.58-0.13-1.22-0.15-1.8-0.05c-4.2,0.74-8.4,0.85-12.6,0.08c-0.65-0.12-1.29-0.35-1.88-0.64C45,25.84,44.64,25.09,45.02,24
		c1.11-3.19,2.15-6.4,3.28-9.58c0.13-0.36,0.61-0.83,0.95-0.84c2.35-0.07,4.69-0.04,7.26-0.04c-0.57,1.77-1.07,3.32-1.58,4.87
		c-0.59,1.77-1.16,3.55-1.79,5.31c-0.37,1.02,0.02,1.37,1.01,1.45c1.88,0.14,2.42-0.2,3.03-2.02c0.96-2.87,1.89-5.74,2.89-8.59
		c0.14-0.39,0.64-0.91,0.99-0.92C63.41,13.54,65.77,13.58,68.3,13.58z"/>
	<path class="st0" d="M36.77,46.75c-0.41,2.06-0.82,4.14-1.26,6.35c-0.5-0.1-0.9-0.1-1.24-0.25c-4.69-2.11-9.67-3.67-13.75-6.98
		c-2.92-2.37-5.62-4.9-6.89-8.62c-1.28-3.74-0.41-7.13,1.66-10.24c2.19-3.29,5.33-5.61,8.72-7.51c2.81-1.57,5.78-2.85,8.67-4.25
		c0.19,0.24,0.39,0.49,0.58,0.73c-0.39,0.21-0.83,0.37-1.17,0.64c-2.8,2.17-5.73,4.18-7.65,7.33c-2.45,4.01-2.65,8.01-0.39,12.1
		c2.11,3.83,5.45,6.39,9.07,8.65C34.28,45.41,35.51,46.04,36.77,46.75z"/>
	<path class="st0" d="M50.8,6.79c-0.29,1.21-0.59,2.45-0.92,3.8c-1.73,0-3.42,0.06-5.1-0.02c-1.02-0.05-1.47,0.24-1.7,1.3
		c-1.06,4.73-2.25,9.42-3.3,14.15c-0.23,1.05-0.68,1.35-1.7,1.32c-2.35-0.07-4.7-0.02-7.28-0.02c1.34-5.68,2.61-11.1,3.93-16.69
		c-2.18,0-4.25,0-6.46,0c0.29-1.23,0.51-2.32,0.83-3.37c0.09-0.28,0.51-0.64,0.78-0.64c6.89-0.01,13.78,0.02,20.67,0.05
		C50.61,6.67,50.65,6.71,50.8,6.79z"/>
	<path class="st0" d="M49.48,30.1c-1.27,6.05-2.49,11.87-3.76,17.92c2.98-0.45,5.79-0.87,8.8-1.32c-0.29,1.33-0.51,2.49-0.83,3.63
		c-0.07,0.26-0.43,0.57-0.7,0.62c-5.41,0.99-10.82,1.95-16.47,2.96c1.57-7.82,3.11-15.47,4.68-23.29
		C43.89,30.45,46.57,30.28,49.48,30.1z"/>
	<path class="st0" d="M100.26,27.46c0.74-2.24,1.44-4.34,2.13-6.44c0.42-1.26,0.88-2.52,1.25-3.79c0.1-0.32,0.09-0.86-0.11-1.05
		c-0.88-0.86-3.41-0.15-3.82,1.04c-1.04,3.07-2.08,6.14-3.07,9.23c-0.24,0.74-0.57,1.06-1.39,1.03c-2.12-0.06-4.25-0.02-6.55-0.02
		c1-2.97,1.94-5.78,2.88-8.6c0.49-1.47,1.01-2.94,1.46-4.43c0.2-0.67,0.54-0.91,1.24-0.87c2.34,0.12,4.67,0.22,7.01,0.26
		c2.21,0.04,4.43-0.07,6.64,0.01c0.91,0.03,1.84,0.33,2.7,0.64c1.12,0.41,1.54,1.24,1.12,2.45c-1.11,3.23-2.17,6.49-3.3,9.71
		c-0.11,0.33-0.55,0.77-0.84,0.78C105.23,27.49,102.83,27.46,100.26,27.46z"/>
	<path class="st0" d="M39.41,54.01c3.93-0.71,7.86-1.43,11.79-2.12c0.47-0.08,1-0.08,1.45,0.06c6.76,1.99,13.75,2.42,20.69,3
		c10.32,0.86,20.61,0.14,30.82-1.65c1.92-0.34,3.85-0.61,5.82-0.92c-3.36,2.43-24.36,5.98-35.03,6.06
		C62.92,58.52,51.06,57.45,39.41,54.01z"/>
	<path class="st0" d="M57.25,41.87c0.44-1.96,0.55-3.86,1.33-5.42c0.55-1.08,1.92-1.99,3.12-2.44c2.52-0.94,5.21-1.11,7.89-0.69
		c2.2,0.35,2.9,1.33,2.46,3.52c-0.76,3.79-1.55,7.58-2.38,11.35c-0.08,0.37-0.5,0.87-0.84,0.95c-1.38,0.32-2.79,0.54-4.2,0.72
		c-0.33,0.04-0.71-0.19-1.2-0.33c-1.44,1.08-3.25,1.63-5.21,1.64c-1.97,0.01-2.81-1.04-2.61-2.98c0.27-2.68,1.61-4.45,4.2-5.26
		c1.31-0.41,2.63-0.82,3.92-1.29c1.65-0.6,3.07-3.35,2.55-5.01c-0.09-0.29-0.64-0.58-1-0.61c-0.85-0.07-1.62,0.21-1.85,1.16
		c-0.26,1.08-0.39,2.19-0.72,3.25c-0.12,0.38-0.61,0.82-1,0.89C60.37,41.57,58.99,41.67,57.25,41.87z M64.98,43.92
		c-0.11-0.07-0.22-0.14-0.34-0.21c-0.87,0.58-1.84,1.05-2.55,1.78c-0.37,0.38-0.38,1.2-0.37,1.83c0,0.15,0.8,0.51,1.09,0.39
		c0.59-0.23,1.3-0.61,1.55-1.12C64.75,45.78,64.79,44.81,64.98,43.92z"/>
	<path class="st0" d="M88.6,34.39c-1.49,1.88-2.86,3.6-4.15,5.23c0.76,0.55,1.75,0.91,2.03,1.58c0.31,0.71-0.07,1.7-0.1,2.57
		c-0.07,2.06-1.03,3.1-3.18,3.08c-1-0.01-2,0.29-3.21,0.48c0.23-1.1,0.49-2.03,0.61-2.97c0.08-0.57,0.69-1.43-0.37-1.65
		c-0.94-0.2-1.94-0.02-2.29,1.1c-0.3,0.97-0.54,1.98-0.67,2.99c-0.12,0.88-0.55,1.17-1.38,1.26c-1.4,0.16-2.78,0.43-4.38,0.68
		c0.68-3.25,1.31-6.32,1.96-9.38c0.41-1.96,0.81-3.92,1.28-5.86c0.08-0.34,0.45-0.82,0.73-0.85c1.58-0.16,3.17-0.21,4.93-0.31
		c-0.58,2.67-1.13,5.21-1.68,7.74c0.08,0.05,0.16,0.11,0.24,0.16c0.54-0.74,1.21-1.43,1.6-2.24c1.36-2.84,3.61-3.92,6.65-3.6
		C87.6,34.42,87.98,34.39,88.6,34.39z"/>
	<path class="st0" d="M103.17,40.87c-0.66,0.76-1.18,1.78-2,2.24c-3.3,1.83-6.92,2.5-10.67,2.28c-1.86-0.11-2.29-0.87-1.88-2.66
		c0.53-2.29,1.11-4.58,1.58-6.88c0.4-1.96,1.56-3.16,3.41-3.72c2.9-0.88,5.88-0.95,8.85-0.54c2.14,0.29,2.61,1.17,2.07,3.24
		c-0.13,0.52-0.26,1.03-0.4,1.55c-0.8,2.98-0.8,2.98-3.82,3.33c-1.5,0.17-3,0.36-4.5,0.55c-0.92,0.12-1.81,1.28-1.36,2.05
		c0.21,0.37,1.16,0.36,1.79,0.41c0.27,0.02,0.69-0.16,0.82-0.38c1.42-2.4,3.88-1.15,5.75-1.93
		C102.92,40.55,103.05,40.71,103.17,40.87z M95.36,38.29c3.08,0.03,3.08,0.03,3.79-2.72c0.01-0.04,0.03-0.09,0.03-0.13
		c-0.01-0.58-0.03-1.16-0.04-1.74c-0.73,0.04-1.48-0.01-2.18,0.15c-0.3,0.07-0.61,0.53-0.72,0.87
		C95.9,35.87,95.66,37.04,95.36,38.29z"/>
	<path class="st0" d="M40.01,27.36c0.74-3.1,1.67-6.17,2.16-9.31c0.4-2.53,1.56-4,3.94-4.88c5.32-1.97,10.71-3.6,16.34-4.35
		c0.3-0.04,0.62-0.01,1.28-0.01c-0.7,0.28-1.08,0.44-1.47,0.59c-1.75,0.64-3.6,1.1-5.25,1.95c-2.62,1.36-5.24,2.35-8.26,1.99
		c-0.3-0.04-0.82,0.45-0.97,0.8c-1.21,2.86-2.43,5.71-3.47,8.63c-0.64,1.77-0.7,3.66-0.14,5.51c0.14,0.46,0.25,0.92,0.41,1.48
		c-1.15,0.1-2.17,0.28-3.18,0.25c-1.02-0.03-1.37,0.39-1.53,1.35c-0.34,2.05-0.82,4.08-1.29,6.32c-2.95-2.44-5.3-5.04-5.95-8.82
		c-0.2-1.17,0.19-1.6,1.4-1.55C35.97,27.42,37.93,27.36,40.01,27.36z"/>
	<path class="st0" d="M116.48,34.01c-0.4-0.38-0.77-1.01-1.22-1.08c-0.96-0.14-2.05-0.08-2.53,1c-0.38,0.84,0.37,1.12,0.98,1.22
		c1.44,0.25,2.91,0.39,4.36,0.61c1.04,0.16,2.49,0.18,2.54,1.43c0.03,0.91-0.85,1.92-1.47,2.77c-0.31,0.42-0.95,0.66-1.48,0.85
		c-3.37,1.23-6.84,1.9-10.43,1.89c-0.52,0-1.22-0.05-1.5-0.37c-0.41-0.46-0.64-1.19-0.67-1.81c-0.01-0.26,0.67-0.72,1.09-0.79
		c1.53-0.28,3.08-0.44,4.59-0.64c0.75,1.22,2.81,1.3,3.65,0.19c0.55-0.72,0.28-1.36-0.82-1.58c-1.39-0.28-2.81-0.42-4.22-0.59
		c-1.13-0.14-2.27-0.27-2.73-1.52c-0.36-0.97,0.4-2.54,1.64-3.24c0.87-0.49,1.87-0.99,2.84-1.06c2.74-0.22,5.49-0.27,8.24-0.26
		c0.76,0,1.6,0.32,2.24,0.74c0.34,0.22,0.49,0.99,0.43,1.48c-0.04,0.31-0.59,0.76-0.95,0.8c-1.54,0.18-3.1,0.23-4.65,0.33
		C116.42,34.25,116.45,34.13,116.48,34.01z"/>
	<path class="st0" d="M78.04,27.47c1.13-3.4,2.18-6.6,3.28-9.77c0.09-0.27,0.55-0.58,0.85-0.59c2.35-0.05,4.7-0.03,7.26-0.03
		c-0.18,0.59-0.32,1.07-0.48,1.54c-0.88,2.61-1.79,5.2-2.63,7.82c-0.24,0.73-0.54,1.07-1.38,1.05
		C82.72,27.42,80.5,27.47,78.04,27.47z"/>
	<path class="st0" d="M49.54,35.99c1.96,1.18,3.76,2.41,5.69,3.39c1.05,0.53,1.56,1.02,1.1,2.18c-0.07,0.19-0.01,0.43-0.01,0.83
		c1.41-0.14,2.78-0.27,3.73-0.36c-1.17,0.73-2.65,1.66-4.15,2.55c-0.27,0.16-0.69,0.19-0.99,0.11c-2.01-0.54-4.03-1.09-6.01-1.73
		c-0.32-0.1-0.77-0.68-0.72-0.96c0.34-1.92,0.79-3.82,1.21-5.72C49.42,36.15,49.52,36.03,49.54,35.99z"/>
	<path class="st0" d="M90.43,13.58c-0.36,2.47-0.4,2.5-2.66,2.5c-1.9,0-3.79,0-5.7,0c0.23-2.4,0.35-2.5,2.52-2.5
		C86.53,13.58,88.47,13.58,90.43,13.58z"/>
	<path class="st0" d="M40.02,58.88c-0.04,0.4-0.1,0.99-0.16,1.48c-0.49-0.05-1.07,0-1.56-0.19c-0.57-0.21-1.51-0.61-1.51-0.95
		c-0.01-0.67,0.5-1.36,0.89-2.04c0.32-0.54,0.55-1.17,0.99-1.56c0.14-0.13,1.22,0.4,1.21,0.56c-0.05,0.56-0.4,1.09-0.78,1.98
		C39.24,58.26,39.63,58.57,40.02,58.88z M38.3,57.8c-0.91,0.32-1.42,0.78-0.9,1.5c0.22,0.31,0.93,0.27,1.77,0.48
		C38.76,58.84,38.55,58.37,38.3,57.8z"/>
	<path class="st0" d="M90.39,61.93c-0.89,0.15-1.61,0.27-2.36,0.39c0.53,1.28,0.88,1.33,2.14,0.37c-0.15,0.82-0.51,1.13-1.31,1.08
		c-1.05-0.08-1.44-0.77-1.5-1.71c-0.05-0.92,0.34-1.58,1.3-1.71C89.71,60.2,90.19,60.81,90.39,61.93z"/>
	<path class="st0" d="M62.7,62.88c-0.9,0.06-1.68,0.1-2.48,0.15c0.49,1.34,0.76,1.4,2.15,0.55c-0.24,0.84-0.62,1.12-1.42,0.97
		c-1.01-0.19-1.39-0.9-1.33-1.85c0.06-0.89,0.48-1.54,1.47-1.58C62.15,61.08,62.56,61.74,62.7,62.88z"/>
	<path class="st0" d="M66.21,63.03c0.37,1.33,0.71,1.41,2.08,0.56c-0.21,0.82-0.59,1.1-1.38,0.97c-1.03-0.17-1.4-0.89-1.34-1.82
		c0.05-0.93,0.49-1.64,1.56-1.61c1.04,0.03,1.41,0.71,1.49,1.75C67.77,62.93,67,62.98,66.21,63.03z"/>
	<path class="st0" d="M27,55.84c0.25-0.61,0.58-1.21,0.72-1.85c0.08-0.34-0.17-0.75-0.26-1.12c-0.36,0.17-0.85,0.26-1.06,0.54
		c-0.39,0.54-0.61,1.19-0.9,1.8c-0.12-0.05-0.24-0.11-0.37-0.16c0.25-0.62,0.57-1.23,0.73-1.87c0.08-0.32-0.12-0.7-0.19-1.06
		c-0.38,0.14-0.9,0.16-1.1,0.43c-0.4,0.54-0.63,1.22-0.93,1.84c-0.12-0.05-0.24-0.09-0.36-0.14c0.38-0.96,0.75-1.92,1.15-2.92
		c1.15,0.42,2.25,0.75,3.28,1.23c0.33,0.15,0.7,0.77,0.63,1.08c-0.19,0.82-0.61,1.58-0.93,2.37C27.27,55.95,27.13,55.89,27,55.84z"
		/>
	<path class="st0" d="M79.29,62.89c-0.84,0.04-1.58,0.08-2.33,0.12c0.3,1.34,0.57,1.41,2.13,0.61c-0.38,0.84-0.86,1.13-1.62,0.91
		c-1.08-0.32-1.25-1.15-1.11-2.11c0.13-0.88,0.68-1.35,1.56-1.28C78.88,61.19,79.31,61.78,79.29,62.89z"/>
	<path class="st0" d="M99.4,60.81c-0.84,0.15-1.57,0.28-2.31,0.41c0.42,1.29,0.77,1.35,2.14,0.39c-0.23,0.83-0.64,1.17-1.4,1.07
		c-1.03-0.13-1.4-0.83-1.42-1.78c-0.02-0.86,0.32-1.49,1.21-1.64C98.65,59.1,99.21,59.61,99.4,60.81z"/>
	<path class="st0" d="M86.21,60.59c-0.94-0.63-1.84-1.07-2.72-0.02c-0.59,0.71-0.38,2.4,0.38,2.93c1.29,0.9,1.97-0.09,2.77-1.28
		c0.02,1.44-0.66,1.89-1.58,2.05c-1.17,0.2-2.04-0.48-2.37-1.81c-0.33-1.31,0.19-2.48,1.33-2.82
		C84.96,59.36,85.84,59.42,86.21,60.59z"/>
	<path class="st0" d="M49.62,59.75c-0.85-1.23-1.64-1.92-2.78-1.04c-0.76,0.59-0.93,2.26-0.31,2.92c0.99,1.04,1.88,0.47,2.81-0.21
		c-0.29,0.93-0.93,1.32-1.87,1.21c-1.31-0.15-1.96-1.11-1.82-2.61c0.13-1.36,0.97-2.19,2.23-2.13
		C48.81,57.94,49.56,58.25,49.62,59.75z"/>
	<path class="st0" d="M20.55,49.72c-0.31-1.28-0.59-2.44-2.1-2.07c-0.94,0.23-1.84,1.72-1.55,2.51c0.45,1.23,1.39,1.31,2.54,0.99
		c-0.62,0.74-1.32,0.76-2.08,0.31c-1.02-0.6-1.28-1.62-0.75-2.77c0.59-1.28,1.78-1.87,2.9-1.45C20.56,47.64,20.9,48.34,20.55,49.72z
		"/>
	<path class="st0" d="M29.61,52.96c0.87,0.63,1.8,1.02,2.18,1.71c0.22,0.4-0.26,1.48-0.74,1.91c-0.38,0.33-1.23,0.13-2.13,0.17
		c-0.05,0.09-0.27,0.48-0.49,0.87c-0.1-0.04-0.21-0.08-0.31-0.12C28.58,56.11,29.03,54.74,29.61,52.96z M31.81,54.99
		c-0.54-0.5-0.86-0.79-1.18-1.09c-0.43,0.49-0.97,0.92-1.22,1.49c-0.09,0.21,0.51,0.73,0.79,1.11
		C30.68,56.05,31.15,55.61,31.81,54.99z"/>
	<path class="st0" d="M22.92,51.54c0-1.45-0.94-1.21-1.76-1.16c0.02-0.15,0.05-0.3,0.07-0.45c0.59,0.11,1.29,0.06,1.72,0.38
		c0.31,0.23,0.39,0.99,0.3,1.46c-0.12,0.63-0.5,1.2-0.75,1.73c-0.52-0.14-1.02-0.16-1.38-0.4c-0.42-0.28-0.71-0.76-1.06-1.15
		c0.46-0.23,0.9-0.58,1.39-0.66C21.9,51.21,22.38,51.43,22.92,51.54z M22.52,52.54c-0.01-0.25-0.03-0.49-0.04-0.74
		c-0.59,0.03-1.17,0.07-1.76,0.1c0.09,0.26,0.16,0.72,0.27,0.73C21.49,52.67,22.01,52.59,22.52,52.54z"/>
	<path class="st0" d="M53.1,61.2c0.04,1.34-0.6,2.11-1.59,2.09c-0.95-0.01-1.48-0.5-1.54-1.46c-0.06-1.07,0.62-2,1.52-1.98
		C52.46,59.89,53.04,60.42,53.1,61.2z M53.03,61.56c-0.62-0.57-1-0.92-1.37-1.26c-0.4,0.44-1.03,0.85-1.11,1.34
		c-0.06,0.38,0.59,0.87,0.92,1.31C51.91,62.55,52.36,62.16,53.03,61.56z"/>
	<path class="st0" d="M69.51,64.38c0-0.98,0-1.96,0-2.95c2.6-0.36,3.22,0.42,2.08,2.99c0-0.58,0.1-1.18-0.03-1.73
		c-0.1-0.41-0.51-0.74-0.78-1.11c-0.29,0.37-0.71,0.7-0.83,1.12c-0.15,0.52-0.03,1.11-0.03,1.67
		C69.78,64.37,69.65,64.37,69.51,64.38z"/>
	<path class="st0" d="M91.4,63.31c-0.13-0.99-0.26-1.97-0.39-2.95c2.7-0.64,3.18-0.17,2.65,2.71c-0.11-0.6-0.15-1.23-0.37-1.78
		c-0.15-0.37-0.55-0.64-0.84-0.96c-0.27,0.39-0.71,0.75-0.78,1.18c-0.1,0.57,0.09,1.19,0.15,1.78C91.68,63.29,91.54,63.3,91.4,63.31
		z"/>
	<path class="st0" d="M53.76,63.56c0.1-1,0.2-2,0.3-3c2.73,0.07,3.25,0.91,1.91,3.25c0.05-0.66,0.18-1.34,0.12-1.99
		c-0.03-0.34-0.42-0.64-0.65-0.96c-0.32,0.25-0.81,0.44-0.93,0.76c-0.23,0.62-0.25,1.32-0.36,1.98
		C54.01,63.59,53.88,63.57,53.76,63.56z"/>
	<path class="st0" d="M76,63.68c-0.75,0.38-1.35,0.94-1.72,0.81c-0.55-0.19-1.13-0.79-1.32-1.35c-0.26-0.78,0-1.63,0.93-1.94
		c0.72-0.24,1.37-0.1,1.63,0.52c-0.69,0.11-1.56,0-1.89,0.37c-0.28,0.32-0.14,1.37,0.2,1.75C74.07,64.11,74.96,63.79,76,63.68z"/>
	<path class="st0" d="M58.9,59.65c-0.37,1.5-0.73,2.93-1.14,4.56C57.14,61.34,57.76,59.56,58.9,59.65z"/>
	<path class="st0" d="M95.83,62.81c-0.87-0.14-1.53-2.41-0.71-4.15c0.07,0.65,0.09,1.31,0.21,1.95
		C95.45,61.34,95.65,62.06,95.83,62.81z"/>
	<path class="st0" d="M100.43,62.2c-0.13-0.99-0.27-1.97-0.41-3.04c0.57-0.12,1.09-0.23,1.6-0.34c-1.68,0.81-0.67,2.27-0.78,3.4
		C100.7,62.21,100.56,62.2,100.43,62.2z"/>
	<path class="st0" d="M63.51,64.33c0-0.96,0-1.92,0-3c0.49-0.05,1.02-0.1,1.55-0.14c-0.42,0.53-0.89,0.91-1.06,1.39
		c-0.19,0.54-0.12,1.18-0.16,1.77C63.73,64.35,63.62,64.34,63.51,64.33z"/>
</g>
</svg>
